<?xml version="1.0" encoding="UTF-8" standalone="no"?>
<svg
   version="1.2"
   width="382.77283mm"
   height="315.63937mm"
   viewBox="0 0 38277.283 31563.937"
   preserveAspectRatio="xMidYMid"
   fill-rule="evenodd"
   stroke-width="28.222"
   stroke-linejoin="round"
   xml:space="preserve"
   id="svg1200"
   sodipodi:docname="9-inks.svg"
   inkscape:version="1.2.2 (732a01da63, 2022-12-09, custom)"
   xmlns:inkscape="http://www.inkscape.org/namespaces/inkscape"
   xmlns:sodipodi="http://sodipodi.sourceforge.net/DTD/sodipodi-0.dtd"
   xmlns="http://www.w3.org/2000/svg"
   xmlns:svg="http://www.w3.org/2000/svg"
   xmlns:ooo="http://xml.openoffice.org/svg/export"><sodipodi:namedview
   id="namedview1202"
   pagecolor="#ffffff"
   bordercolor="#000000"
   borderopacity="0.25"
   inkscape:showpageshadow="2"
   inkscape:pageopacity="0.0"
   inkscape:pagecheckerboard="0"
   inkscape:deskcolor="#d1d1d1"
   inkscape:document-units="mm"
   showgrid="false"
   inkscape:zoom="0.56173077"
   inkscape:cx="724.54639"
   inkscape:cy="633.75556"
   inkscape:window-width="1920"
   inkscape:window-height="1031"
   inkscape:window-x="0"
   inkscape:window-y="25"
   inkscape:window-maximized="1"
   inkscape:current-layer="layer1" />
 <defs
   class="ClipPathGroup"
   id="defs1121">
  <clipPath
   id="presentation_clip_path"
   clipPathUnits="userSpaceOnUse">
   <rect
   x="0"
   y="0"
   width="44000"
   height="39000"
   id="rect1115" />
  </clipPath>
  <clipPath
   id="presentation_clip_path_shrink"
   clipPathUnits="userSpaceOnUse">
   <rect
   x="44"
   y="39"
   width="43912"
   height="38922"
   id="rect1118" />
  </clipPath>
 </defs>
 <defs
   class="TextShapeIndex"
   id="defs1125">
  <g
   ooo:slide="id1"
   ooo:id-list="id3 id4 id5 id6"
   id="g1123" />
 </defs>
 <defs
   class="EmbeddedBulletChars"
   id="defs1157">
  <g
   id="bullet-char-template-57356"
   transform="matrix(4.8828125e-4,0,0,-4.8828125e-4,0,0)">
   <path
   d="M 580,1141 1163,571 580,0 -4,571 Z"
   id="path1127" />
  </g>
  <g
   id="bullet-char-template-57354"
   transform="matrix(4.8828125e-4,0,0,-4.8828125e-4,0,0)">
   <path
   d="M 8,1128 H 1137 V 0 H 8 Z"
   id="path1130" />
  </g>
  <g
   id="bullet-char-template-10146"
   transform="matrix(4.8828125e-4,0,0,-4.8828125e-4,0,0)">
   <path
   d="M 174,0 602,739 174,1481 1456,739 Z M 1358,739 309,1346 659,739 Z"
   id="path1133" />
  </g>
  <g
   id="bullet-char-template-10132"
   transform="matrix(4.8828125e-4,0,0,-4.8828125e-4,0,0)">
   <path
   d="M 2015,739 1276,0 H 717 l 543,543 H 174 v 393 h 1086 l -543,545 h 557 z"
   id="path1136" />
  </g>
  <g
   id="bullet-char-template-10007"
   transform="matrix(4.8828125e-4,0,0,-4.8828125e-4,0,0)">
   <path
   d="m 0,-2 c -7,16 -16,29 -25,39 l 381,530 c -94,256 -141,385 -141,387 0,25 13,38 40,38 9,0 21,-2 34,-5 21,4 42,12 65,25 l 27,-13 111,-251 280,301 64,-25 24,25 c 21,-10 41,-24 62,-43 C 886,937 835,863 770,784 769,783 710,716 594,584 L 774,223 c 0,-27 -21,-55 -63,-84 l 16,-20 C 717,90 699,76 672,76 641,76 570,178 457,381 L 164,-76 c -22,-34 -53,-51 -92,-51 -42,0 -63,17 -64,51 -7,9 -10,24 -10,44 0,9 1,19 2,30 z"
   id="path1139" />
  </g>
  <g
   id="bullet-char-template-10004"
   transform="matrix(4.8828125e-4,0,0,-4.8828125e-4,0,0)">
   <path
   d="M 285,-33 C 182,-33 111,30 74,156 52,228 41,333 41,471 c 0,78 14,145 41,201 34,71 87,106 158,106 53,0 88,-31 106,-94 l 23,-176 c 8,-64 28,-97 59,-98 l 735,706 c 11,11 33,17 66,17 42,0 63,-15 63,-46 V 965 c 0,-36 -10,-64 -30,-84 L 442,47 C 390,-6 338,-33 285,-33 Z"
   id="path1142" />
  </g>
  <g
   id="bullet-char-template-9679"
   transform="matrix(4.8828125e-4,0,0,-4.8828125e-4,0,0)">
   <path
   d="M 813,0 C 632,0 489,54 383,161 276,268 223,411 223,592 c 0,181 53,324 160,431 106,107 249,161 430,161 179,0 323,-54 432,-161 108,-107 162,-251 162,-431 0,-180 -54,-324 -162,-431 C 1136,54 992,0 813,0 Z"
   id="path1145" />
  </g>
  <g
   id="bullet-char-template-8226"
   transform="matrix(4.8828125e-4,0,0,-4.8828125e-4,0,0)">
   <path
   d="m 346,457 c -73,0 -137,26 -191,78 -54,51 -81,114 -81,188 0,73 27,136 81,188 54,52 118,78 191,78 73,0 134,-26 185,-79 51,-51 77,-114 77,-187 0,-75 -25,-137 -76,-188 -50,-52 -112,-78 -186,-78 z"
   id="path1148" />
  </g>
  <g
   id="bullet-char-template-8211"
   transform="matrix(4.8828125e-4,0,0,-4.8828125e-4,0,0)">
   <path
   d="M -4,459 H 1135 V 606 H -4 Z"
   id="path1151" />
  </g>
  <g
   id="bullet-char-template-61548"
   transform="matrix(4.8828125e-4,0,0,-4.8828125e-4,0,0)">
   <path
   d="m 173,740 c 0,163 58,303 173,419 116,115 255,173 419,173 163,0 302,-58 418,-173 116,-116 174,-256 174,-419 0,-163 -58,-303 -174,-418 C 1067,206 928,148 765,148 601,148 462,206 346,322 231,437 173,577 173,740 Z"
   id="path1154" />
  </g>
 </defs>
 
 
<g
   inkscape:groupmode="layer"
   id="layer1"
   inkscape:label="Layer 1"
   transform="translate(-2660.2156,-2736.1655)"><path
     fill="#729fcf"
     stroke="none"
     d="m 20859,10759 c 39,38 -264,104 -665,144 -361,36 -457,36 -837,-5 -1000,-105 -1610,-524 -1475,-1011 70,-251 55,-250 565,-62 477,175 530,215 531,395 0,55 41,187 90,293 86,184 94,190 142,125 28,-38 77,-153 109,-256 33,-102 69,-186 82,-186 45,0 1429,534 1458,563 z"
     id="path1166"
     style="display:inline;fill:#ff0000" /><path
     fill="#729fcf"
     stroke="none"
     d="m 24777,10441 c -270,249 -682,392 -1321,459 -184,19 -390,33 -458,31 -448,-17 -1052,-121 -1000,-173 27,-27 1415,-561 1461,-562 11,0 46,84 79,186 32,103 80,217 108,254 46,64 53,59 123,-77 40,-80 84,-214 97,-298 13,-85 36,-177 50,-207 15,-29 237,-131 492,-227 512,-192 496,-193 567,60 56,202 -7,378 -198,554 z"
     id="path1173"
     style="display:inline;fill:#00ff00" /><path
     fill="#000000"
     stroke="none"
     d="m 24863,4354 123,72 121,75 119,78 117,80 114,83 112,85 110,87 107,90 104,92 102,94 99,97 96,98 94,101 90,102 88,105 84,106 82,108 78,110 75,111 73,113 68,115 66,116 62,117 59,118 55,120 52,121 49,122 45,124 41,124 38,124 35,126 31,126 27,127 23,128 20,128 17,128 8,90 c 102,359 106,394 129,1402 24,1032 24,1035 99,1011 1118,-354 2267,-337 3549,52 631,191 978,248 1506,248 923,0 1683,-217 2437,-694 659,-418 1263,-1083 1614,-1777 548,-1084 1568,-1725 2744,-1727 290,0 722,75 947,165 310,124 446,440 317,731 -131,298 -429,382 -792,224 -276,-120 -746,-113 -1012,14 -337,160 -575,451 -706,859 -79,248 -351,839 -503,1094 -672,1125 -1637,2014 -2760,2543 -704,332 -1431,517 -2278,580 -1540,115 -2758,404 -3948,939 -632,285 -1707,896 -1655,941 8,7 189,102 403,211 718,365 1126,650 2190,1528 577,476 952,742 1249,887 233,114 297,130 529,130 339,1 534,-90 832,-388 410,-411 628,-1012 549,-1518 -64,-414 -237,-710 -689,-1180 -459,-478 -586,-634 -586,-725 0,-139 89,-278 225,-351 121,-65 130,-65 329,-4 702,217 1408,802 1742,1443 710,1362 395,2878 -779,3756 -466,348 -1059,540 -1677,543 -489,2 -768,-63 -1239,-290 -319,-153 -407,-218 -783,-577 -654,-622 -1172,-951 -1869,-1185 -329,-110 -906,-223 -1047,-205 -82,11 -75,27 158,343 232,314 260,339 520,462 705,333 1359,785 1910,1321 558,542 914,1022 1235,1663 339,682 465,1038 816,2317 324,1181 465,1534 731,1829 218,241 361,296 769,296 299,0 393,-15 617,-98 684,-254 1110,-781 1156,-1431 11,-164 -12,-510 -65,-948 l -83,-689 114,-101 c 89,-80 148,-102 271,-102 131,0 174,19 274,121 65,67 191,261 281,432 646,1226 443,2632 -520,3592 -362,362 -746,589 -1234,730 -365,105 -1103,113 -1464,16 -557,-151 -1133,-520 -1480,-948 -338,-418 -496,-821 -649,-1650 -185,-1003 -761,-1965 -1552,-2594 -165,-131 -463,-347 -663,-480 l -363,-242 h -310 c -170,0 -310,8 -310,17 0,9 78,164 173,344 536,1012 827,2190 767,3103 -59,898 -305,1529 -932,2392 -369,506 -535,1006 -536,1605 -1,741 292,1413 843,1932 574,542 1308,801 2120,749 282,-18 354,-11 456,42 178,94 261,226 261,417 0,287 -148,414 -654,560 -1593,461 -3328,-183 -4223,-1566 -397,-614 -579,-1229 -580,-1958 0,-559 30,-713 295,-1499 316,-936 366,-1216 368,-2064 1,-781 -56,-1181 -264,-1825 -144,-446 -513,-1174 -801,-1579 -314,-441 -910,-1031 -1464,-1446 -334,-251 -446,-355 -448,-415 -1,-55 -23,-79 -72,-79 -40,0 -71,-23 -71,-53 0,-33 -33,-53 -88,-53 -55,0 -88,-20 -88,-53 0,-29 -32,-53 -71,-53 -39,0 -70,-22 -70,-49 0,-86 -99,-91 -153,-8 -118,180 -520,1020 -669,1398 -319,812 -518,1549 -670,2486 -66,413 -75,614 -78,1976 -5,1636 -23,1849 -217,2518 -499,1726 -1579,3031 -3258,3936 -444,239 -568,352 -717,654 -101,206 -112,260 -112,547 0,303 7,332 150,619 169,340 175,381 81,587 -104,229 -342,345 -597,291 -260,-55 -422,-288 -576,-826 -67,-235 -80,-365 -79,-776 2,-676 120,-1089 463,-1619 225,-348 466,-590 928,-931 514,-380 918,-790 1212,-1233 523,-784 764,-1579 764,-2514 0,-739 -125,-1273 -475,-2042 -430,-942 -617,-1855 -571,-2783 22,-455 221,-1463 401,-2037 155,-496 446,-1026 783,-1428 89,-107 186,-226 215,-264 102,-135 -833,649 -1079,904 -761,790 -1148,1900 -1038,2972 19,193 42,357 50,365 8,8 -24,128 -71,266 -204,599 -239,1044 -170,2159 53,867 -32,1603 -269,2310 -510,1521 -1424,2632 -2553,3102 -597,248 -1308,356 -1906,289 -679,-76 -1215,-259 -1360,-463 -110,-154 -117,-413 -15,-550 169,-226 213,-239 819,-245 447,-4 610,-20 837,-81 1165,-315 2020,-1234 2220,-2385 68,-390 68,-600 1,-987 -75,-429 -235,-819 -488,-1190 -361,-528 -545,-843 -677,-1158 -506,-1205 -478,-2534 77,-3737 319,-691 961,-1442 1599,-1868 184,-122 573,-339 864,-481 292,-142 578,-299 636,-348 l 106,-89 -145,-2 c -423,-3 -1164,202 -1696,471 -441,222 -763,461 -1249,925 -377,358 -464,423 -783,576 -471,227 -751,292 -1240,290 -1711,-7 -3014,-1474 -2814,-3169 141,-1188 907,-2142 2054,-2556 222,-81 246,-96 148,-98 -201,-3 -820,-143 -1206,-272 -1441,-483 -2636,-1459 -3447,-2817 -153,-255 -425,-845 -504,-1093 -130,-408 -369,-699 -705,-860 -266,-127 -736,-133 -1012,-13 -363,157 -661,73 -793,-224 -128,-291 -3,-588 304,-722 216,-95 654,-174 961,-174 1176,1 2195,643 2744,1727 351,694 955,1359 1614,1776 753,478 1514,695 2437,695 528,0 875,-58 1506,-249 1118,-339 2133,-397 3083,-175 156,36 289,61 295,54 7,-6 -21,-118 -61,-248 -162,-525 -219,-900 -239,-1569 -33,-1126 126,-1879 605,-2876 672,-1399 1823,-2480 3283,-3081 498,-205 1797,-265 2549,-116 734,144 1531,463 2054,822 127,86 309,211 406,277 97,66 197,141 223,166 26,25 66,45 90,45 24,0 111,64 194,141 28,25 55,49 80,70 z m 740,25331 c -234,-267 -477,-39 -378,355 72,285 299,450 435,314 138,-138 109,-481 -57,-669 z m -7178,-334 c -95,0 -189,123 -189,248 0,186 161,234 280,82 126,-159 79,-330 -91,-330 z m 6573,-288 c 122,-115 117,-385 -8,-484 -120,-93 -245,-41 -300,124 -62,189 45,430 194,435 18,1 70,-33 114,-75 z m -5980,-735 c -194,0 -434,418 -357,622 51,133 213,113 350,-44 240,-273 244,-578 7,-578 z m 5740,-423 c -66,0 -110,163 -67,244 56,106 157,80 171,-44 11,-97 -42,-200 -104,-200 z m -9729,69 c 124,-67 249,-370 237,-574 -10,-177 -14,-183 -115,-183 -153,0 -307,231 -329,492 -22,263 47,350 207,265 z m 4026,-298 c -49,-107 -90,-112 -184,-18 -79,79 -92,211 -27,275 56,56 96,40 181,-74 59,-78 64,-108 30,-183 z m 480,3 c 135,-70 254,-298 254,-487 0,-246 -119,-344 -307,-252 -227,109 -354,553 -205,717 76,84 129,89 258,22 z m 5613,-53 c 170,-183 231,-532 117,-670 -54,-65 -72,-68 -146,-30 -241,124 -344,802 -122,802 30,0 98,-46 151,-102 z m -9994,-1058 c -66,-55 -145,-18 -195,90 -86,189 72,311 189,145 67,-97 70,-182 6,-235 z m 4182,44 c 80,-73 85,-269 9,-345 -124,-125 -276,-29 -276,174 0,205 134,291 267,171 z m -3696,-200 c 98,-132 104,-431 11,-500 -147,-107 -342,92 -343,349 0,261 187,345 332,151 z m 16323,-271 c -73,0 -180,86 -180,146 0,20 46,82 103,139 111,111 233,131 336,55 138,-101 -44,-340 -259,-340 z m -6315,-565 c -156,0 -343,342 -295,539 42,172 117,204 252,109 212,-148 245,-648 43,-648 z m 5715,-201 c -147,-99 -195,-101 -286,-10 -133,133 -67,455 138,670 147,155 308,189 396,83 127,-153 -19,-589 -248,-743 z m -11686,657 c 164,-175 194,-748 53,-991 -56,-96 -90,-117 -187,-117 -101,0 -128,19 -186,132 -245,471 25,1293 320,976 z m -4479,-738 c -53,0 -137,114 -137,185 0,41 26,103 58,138 85,94 189,26 189,-123 0,-108 -51,-200 -110,-200 z m 15602,126 c 82,-179 -79,-564 -226,-543 -143,21 -124,337 32,522 108,129 143,133 194,21 z m -4841,-64 c 32,-88 0,-210 -62,-230 -68,-23 -125,147 -78,234 51,97 102,96 140,-4 z m -10109,-177 c 138,-186 73,-617 -103,-684 -94,-37 -225,23 -279,128 -101,195 -43,590 95,648 96,40 218,1 287,-92 z m 9773,-179 c 150,-201 61,-764 -121,-764 -41,0 -100,48 -142,114 -138,220 -37,795 133,761 31,-6 89,-56 130,-111 z m 5209,-480 c -26,-42 -41,-42 -87,-4 -66,54 -72,148 -14,206 51,51 135,-7 134,-94 0,-31 -15,-80 -33,-108 z m -11629,154 c 41,-109 21,-224 -47,-261 -88,-47 -93,-46 -159,19 -65,66 -72,196 -13,255 61,61 193,53 219,-13 z m 11290,-141 c 141,-142 11,-493 -151,-406 -168,90 -114,437 71,459 13,1 49,-22 80,-53 z m -4389,-193 c 87,-162 4,-457 -128,-457 -75,0 -155,149 -155,290 0,229 190,341 283,167 z m -6596,-141 c 267,-142 194,-775 -88,-775 -280,0 -402,503 -178,728 92,91 161,104 266,47 z m -3781,-442 c 160,-203 124,-584 -68,-727 -118,-88 -254,-41 -335,116 -86,166 -56,495 54,613 111,118 256,117 349,-2 z m 14764,-186 c 41,-142 -56,-409 -177,-488 -212,-139 -360,125 -243,432 109,285 345,317 420,56 z m -4656,104 c 204,-226 28,-964 -270,-1131 -89,-50 -101,-49 -174,25 -63,63 -82,129 -92,317 -29,516 320,1028 536,789 z m 4600,-905 c 6,-40 -20,-100 -57,-133 -60,-55 -71,-56 -112,-6 -36,43 -37,75 -5,144 48,106 158,103 174,-5 z m -757,-680 c -227,27 -244,351 -30,577 98,104 140,125 236,116 88,-8 124,-33 148,-103 81,-232 -148,-614 -354,-590 z m -14155,-748 c -153,-160 -272,-180 -448,-73 -330,202 -349,911 -31,1162 155,121 318,102 475,-56 270,-271 272,-752 4,-1033 z m 13759,420 c 62,-62 71,-101 54,-230 -71,-518 -622,-819 -622,-339 0,155 177,474 314,565 147,97 161,97 254,4 z m 526,-99 c -22,-43 -67,-72 -100,-66 -83,16 -97,138 -21,194 54,39 72,39 113,-2 39,-39 41,-66 8,-126 z m 1864,-2652 c 235,-82 154,-363 -155,-533 -197,-109 -386,-125 -502,-43 -201,140 31,465 415,582 122,38 118,38 242,-6 z m 787,-125 c 140,-127 47,-294 -164,-294 -89,0 -265,137 -265,207 0,134 308,197 429,87 z m -1706,-93 c 28,-146 -234,-377 -427,-378 -136,0 -155,85 -49,224 157,205 449,300 476,154 z m -19240,-379 c 257,-306 -87,-510 -488,-289 -533,293 -276,739 267,464 70,-36 170,-114 221,-175 z m -1088,-89 c -205,-205 -541,-10 -349,202 73,81 303,86 380,9 75,-75 70,-109 -31,-211 z m 1627,138 c 145,-69 310,-272 281,-347 -11,-31 -64,-54 -122,-54 -197,0 -472,263 -419,401 29,73 105,74 260,0 z m 17580,-509 c -76,143 79,363 246,346 70,-7 90,-30 99,-116 20,-208 -258,-393 -345,-230 z m 710,124 c -25,-55 -65,-87 -100,-80 -90,18 -94,87 -10,172 101,101 171,43 110,-92 z m -17530,-170 c 153,-116 146,-375 -10,-375 -148,0 -316,305 -221,400 39,38 166,25 231,-25 z m -463,-133 c 41,-76 16,-136 -57,-136 -62,0 -134,130 -109,196 24,63 118,29 166,-60 z m 17051,-113 c 147,-107 -33,-430 -291,-520 -95,-32 -130,-29 -206,20 -76,50 -87,78 -69,169 25,126 100,221 250,313 125,77 227,83 316,18 z m -15967,-355 c 139,-73 249,-203 273,-328 19,-92 8,-119 -69,-169 -75,-50 -110,-53 -205,-20 -257,90 -438,412 -290,520 82,60 171,60 291,-3 z m -720,-1021 c 765,-631 1090,-879 1484,-1129 355,-225 989,-556 1190,-620 73,-24 139,-54 148,-69 15,-24 -317,-202 -756,-404 -1168,-540 -2560,-883 -3889,-960 l -361,-21 104,72 c 125,87 193,201 195,330 1,99 -110,238 -584,732 -452,470 -625,767 -690,1180 -111,713 400,1623 1052,1872 226,87 555,49 861,-99 293,-141 667,-406 1246,-884 z m 15780,850 c 64,-50 52,-208 -21,-295 -205,-245 -640,-255 -640,-15 0,252 460,468 661,310 z m 269,-408 c -84,16 -97,81 -30,149 79,79 193,73 193,-10 0,-83 -83,-155 -163,-139 z m -14300,-429 c -380,0 -642,466 -300,535 125,26 336,-48 443,-155 190,-190 119,-380 -143,-380 z m 12891,438 c 68,-68 69,-98 5,-222 -83,-160 -314,-297 -533,-315 -216,-18 -299,25 -299,153 0,275 639,572 827,384 z m -13545,-213 c 68,-68 54,-133 -30,-149 -79,-15 -163,56 -163,140 0,83 114,88 193,9 z m 2153,-649 c -92,-76 -416,-26 -583,89 -133,92 -246,244 -246,330 0,151 307,191 552,72 271,-130 411,-380 277,-491 z m 11860,507 c 21,-55 -68,-154 -138,-154 -43,0 -74,97 -50,159 27,71 160,67 188,-5 z m -13058,-459 c -88,64 -47,173 60,158 58,-9 80,-35 80,-97 0,-104 -51,-126 -140,-61 z m -1897,-3115 c 196,-120 133,-365 -118,-461 -303,-115 -633,66 -544,299 80,211 439,298 662,162 z m -1508,-63 c 236,-117 152,-338 -169,-448 -293,-99 -786,-51 -870,85 -43,69 12,209 105,270 246,161 706,207 934,93 z m 19888,-8 c 136,-84 200,-221 148,-318 -161,-302 -775,-189 -775,142 0,216 384,324 627,176 z m 1835,-102 c 158,-81 243,-207 206,-303 -58,-151 -564,-211 -876,-105 -321,109 -404,329 -170,450 175,90 628,68 840,-42 z M 9444,12204 c -95,-142 -313,-258 -477,-254 -124,4 -254,94 -254,177 0,98 109,257 237,344 156,106 429,124 518,34 77,-76 70,-160 -24,-301 z m 25205,197 c 128,-88 238,-246 238,-345 0,-83 -130,-173 -254,-176 -238,-7 -557,243 -557,436 0,190 344,241 573,85 z m -22829,-353 c -76,24 -128,136 -90,197 73,118 308,97 327,-30 14,-93 -137,-199 -237,-167 z m -1647,184 c 87,-64 60,-204 -52,-267 -114,-64 -264,-30 -319,73 -35,66 -28,88 54,158 107,92 223,105 317,36 z m 21606,-255 c -92,-29 -243,71 -243,162 0,125 227,160 319,49 53,-65 11,-183 -76,-211 z m 2018,-9 c -89,-167 -395,-121 -421,62 -25,175 206,235 367,96 82,-71 90,-92 54,-158 z M 8072,11448 c -133,-151 -272,-228 -412,-228 -395,0 -44,565 371,596 23,2 66,-21 97,-52 84,-84 67,-175 -56,-316 z m 582,60 c -128,15 -146,106 -41,204 102,95 254,85 269,-18 14,-101 -106,-200 -228,-186 z m 27222,119 c 160,-103 278,-313 224,-399 -48,-77 -202,-97 -334,-42 -130,54 -350,295 -350,384 0,190 213,216 460,57 z m -888,13 c 104,-97 85,-188 -43,-202 -154,-18 -303,160 -211,252 48,47 177,22 254,-50 z M 6991,10726 c -190,0 -236,127 -97,266 93,93 226,113 295,44 107,-107 -22,-310 -198,-310 z m 29715,196 c 95,-96 108,-160 44,-224 -109,-109 -381,7 -381,162 0,161 200,198 337,62 z m -15847,-162 c -29,-29 -1413,-563 -1458,-563 -13,0 -49,84 -82,186 -32,103 -81,218 -109,256 -48,65 -56,59 -142,-125 -49,-106 -90,-238 -90,-293 -1,-180 -54,-220 -531,-395 -510,-188 -495,-189 -565,62 -135,487 475,906 1475,1011 380,41 476,41 837,5 401,-40 704,-106 665,-144 z m 3919,-318 c 191,-176 254,-352 198,-554 -71,-253 -55,-252 -567,-60 -255,96 -477,198 -492,227 -14,30 -37,122 -50,207 -13,84 -57,218 -97,298 -70,136 -77,141 -123,77 -28,-37 -76,-151 -108,-254 -33,-102 -68,-186 -79,-186 -46,1 -1434,535 -1461,562 -52,52 552,156 1000,173 68,2 274,-12 458,-31 639,-67 1051,-210 1321,-459 z"
     id="path1180" /><path
     fill="#f7d1d5"
     stroke="none"
     d="m 25604,29685 c 166,188 195,531 57,669 -136,136 -363,-29 -435,-314 -99,-394 144,-622 378,-355 z m -7177,-334 c 170,0 217,171 91,330 -119,152 -280,104 -280,-82 0,-125 94,-248 189,-248 z m 6572,-288 c -44,42 -96,76 -114,75 -149,-5 -256,-246 -194,-435 55,-165 180,-217 300,-124 125,99 130,369 8,484 z m -5979,-735 c 237,0 233,305 -7,578 -137,157 -299,177 -350,44 -77,-204 163,-622 357,-622 z m 5739,-423 c 62,0 115,103 104,200 -14,124 -115,150 -171,44 -43,-81 1,-244 67,-244 z m -9728,69 c -160,85 -229,-2 -207,-265 22,-261 176,-492 329,-492 101,0 105,6 115,183 12,204 -113,507 -237,574 z m 4026,-298 c 34,75 29,105 -30,183 -85,114 -125,130 -181,74 -65,-64 -52,-196 27,-275 94,-94 135,-89 184,18 z m 480,3 c -129,67 -182,62 -258,-22 -149,-164 -22,-608 205,-717 188,-92 307,6 307,252 0,189 -119,417 -254,487 z m 5612,-53 c -53,56 -121,102 -151,102 -222,0 -119,-678 122,-802 74,-38 92,-35 146,30 114,138 53,487 -117,670 z m -9993,-1058 c 64,53 61,138 -6,235 -117,166 -275,44 -189,-145 50,-108 129,-145 195,-90 z m 4182,44 c -133,120 -267,34 -267,-171 0,-203 152,-299 276,-174 76,76 71,272 -9,345 z m -3696,-200 c -145,194 -332,110 -332,-151 1,-257 196,-456 343,-349 93,69 87,368 -11,500 z m 16322,-271 c 215,0 397,239 259,340 -103,76 -225,56 -336,-55 -57,-57 -103,-119 -103,-139 0,-60 107,-146 180,-146 z m -6315,-565 c 202,0 169,500 -43,648 -135,95 -210,63 -252,-109 -48,-197 139,-539 295,-539 z m 5715,-201 c 229,154 375,590 248,743 -88,106 -249,72 -396,-83 -205,-215 -271,-537 -138,-670 91,-91 139,-89 286,10 z m -11685,657 c -295,317 -565,-505 -320,-976 58,-113 85,-132 186,-132 97,0 131,21 187,117 141,243 111,816 -53,991 z m -4479,-738 c 59,0 110,92 110,200 0,149 -104,217 -189,123 -32,-35 -58,-97 -58,-138 0,-71 84,-185 137,-185 z m 15601,126 c -51,112 -86,108 -194,-21 -156,-185 -175,-501 -32,-522 147,-21 308,364 226,543 z m -4841,-64 c -38,100 -89,101 -140,4 -47,-87 10,-257 78,-234 62,20 94,142 62,230 z m -10108,-177 c -69,93 -191,132 -287,92 -138,-58 -196,-453 -95,-648 54,-105 185,-165 279,-128 176,67 241,498 103,684 z m 9772,-179 c -41,55 -99,105 -130,111 -170,34 -271,-541 -133,-761 42,-66 101,-114 142,-114 182,0 271,563 121,764 z m 5209,-480 c 18,28 33,77 33,108 1,87 -83,145 -134,94 -58,-58 -52,-152 14,-206 46,-38 61,-38 87,4 z m -11628,154 c -26,66 -158,74 -219,13 -59,-59 -52,-189 13,-255 66,-65 71,-66 159,-19 68,37 88,152 47,261 z m 11289,-141 c -31,31 -67,54 -80,53 -185,-22 -239,-369 -71,-459 162,-87 292,264 151,406 z m -4389,-193 c -93,174 -283,62 -283,-167 0,-141 80,-290 155,-290 132,0 215,295 128,457 z m -6595,-141 c -105,57 -174,44 -266,-47 -224,-225 -102,-728 178,-728 282,0 355,633 88,775 z m -3781,-442 c -93,119 -238,120 -349,2 -110,-118 -140,-447 -54,-613 81,-157 217,-204 335,-116 192,143 228,524 68,727 z m 14763,-186 c -75,261 -311,229 -420,-56 -117,-307 31,-571 243,-432 121,79 218,346 177,488 z m -4656,104 c -216,239 -565,-273 -536,-789 10,-188 29,-254 92,-317 73,-74 85,-75 174,-25 298,167 474,905 270,1131 z m 4600,-905 c -16,108 -126,111 -174,5 -32,-69 -31,-101 5,-144 41,-50 52,-49 112,6 37,33 63,93 57,133 z m -757,-680 c 206,-24 435,358 354,590 -24,70 -60,95 -148,103 -96,9 -138,-12 -236,-116 -214,-226 -197,-550 30,-577 z m -14154,-748 c 268,281 266,762 -4,1033 -157,158 -320,177 -475,56 -318,-251 -299,-960 31,-1162 176,-107 295,-87 448,73 z m 13758,420 c -93,93 -107,93 -254,-4 -137,-91 -314,-410 -314,-565 0,-480 551,-179 622,339 17,129 8,168 -54,230 z m 526,-99 c 33,60 31,87 -8,126 -41,41 -59,41 -113,2 -76,-56 -62,-178 21,-194 33,-6 78,23 100,66 z m 1864,-2652 c -124,44 -120,44 -242,6 -384,-117 -616,-442 -415,-581 116,-82 305,-66 502,43 309,169 390,450 155,532 z m 787,-125 c -121,110 -429,47 -429,-87 0,-70 176,-207 265,-207 211,0 304,167 164,294 z m -1706,-93 c -27,146 -319,51 -476,-154 -106,-138 -87,-223 49,-223 193,1 455,231 427,377 z m -19240,-378 c -51,61 -151,138 -221,174 -543,275 -800,-170 -267,-463 401,-221 745,-17 488,289 z m -1088,-89 c 101,102 106,136 31,210 -77,77 -307,72 -380,-9 -192,-211 144,-406 349,-201 z m 1627,138 c -155,73 -231,72 -260,0 -53,-138 222,-401 419,-401 58,0 111,23 122,54 29,75 -136,278 -281,347 z m 17580,-509 c 87,-163 365,22 345,230 -9,86 -29,109 -99,116 -167,17 -322,-203 -246,-346 z m 710,124 c 61,135 -9,193 -110,92 -84,-85 -80,-154 10,-172 35,-7 75,25 100,80 z m -17530,-170 c -65,50 -192,63 -231,25 -95,-95 73,-400 221,-400 156,0 163,259 10,375 z m -463,-133 c -48,89 -142,123 -166,60 -25,-66 47,-196 109,-196 73,0 98,60 57,136 z m 17051,-113 c -89,65 -191,59 -316,-18 -150,-92 -225,-187 -250,-313 -18,-91 -7,-119 69,-169 76,-49 111,-52 206,-20 258,90 438,413 291,520 z m -15967,-355 c -120,63 -209,63 -291,3 -148,-108 33,-430 290,-520 95,-33 131,-30 206,20 77,50 88,77 69,169 -24,125 -134,255 -274,328 z m 15060,-171 c -201,158 -661,-58 -661,-310 0,-240 435,-230 640,15 73,87 85,245 21,295 z m 269,-408 c 80,-16 163,56 163,139 0,83 -114,89 -193,10 -67,-68 -54,-133 30,-149 z m -14299,-429 c 262,0 333,190 143,380 -107,107 -318,181 -443,155 -342,-69 -80,-535 300,-535 z m 12890,438 c -188,188 -827,-109 -827,-384 0,-128 83,-171 299,-153 219,18 450,155 533,315 64,124 63,154 -5,222 z m -13544,-213 c -79,79 -193,74 -193,-9 0,-84 84,-155 163,-140 84,16 98,81 30,149 z m 2153,-649 c 134,111 -6,361 -277,491 -245,119 -552,79 -552,-72 0,-86 113,-238 246,-330 167,-115 491,-165 583,-89 z m 11859,507 c -28,72 -161,76 -188,5 -24,-62 7,-159 50,-159 70,0 159,99 138,154 z m -13057,-459 c 89,-65 140,-43 140,61 0,62 -22,88 -80,97 -107,15 -148,-94 -60,-158 z m -1898,-3116 c -223,136 -582,49 -662,-162 -89,-233 241,-414 544,-299 251,96 314,341 118,461 z m -1508,-63 c -228,114 -688,68 -934,-93 -93,-61 -148,-201 -105,-270 84,-136 577,-184 870,-85 321,110 405,331 169,448 z m 19888,-8 c -243,148 -627,40 -627,-176 0,-331 614,-444 775,-142 52,97 -12,234 -148,318 z m 1835,-102 c -212,110 -665,132 -840,42 -234,-121 -151,-341 170,-450 312,-106 818,-46 876,105 37,96 -48,222 -206,303 z M 9445,12204 c 94,141 101,225 24,301 -89,90 -362,72 -518,-34 -128,-87 -237,-246 -237,-344 0,-83 130,-173 254,-177 164,-4 382,112 477,254 z m 25205,197 c -229,156 -573,105 -573,-85 0,-193 319,-443 557,-436 124,3 254,93 254,176 0,99 -110,257 -238,345 z m -22829,-353 c 100,-32 251,74 237,167 -19,127 -254,148 -327,30 -38,-61 14,-173 90,-197 z m -1647,184 c -94,69 -210,56 -317,-36 -82,-70 -89,-92 -54,-158 55,-103 205,-137 319,-73 112,63 139,203 52,267 z m 21606,-255 c 87,28 129,146 76,211 -92,111 -319,76 -319,-49 0,-91 151,-191 243,-162 z m 2018,-9 c 36,66 28,87 -54,158 -161,139 -392,79 -367,-96 26,-183 332,-229 421,-62 z M 8073,11448 c 123,141 140,232 56,316 -31,31 -74,54 -97,52 -415,-31 -766,-596 -371,-596 140,0 279,77 412,228 z m 582,60 c 122,-14 242,85 228,186 -15,103 -167,113 -269,18 -105,-98 -87,-189 41,-204 z m 27222,119 c -247,159 -460,133 -460,-57 0,-89 220,-330 350,-384 132,-55 286,-35 334,42 54,86 -64,296 -224,399 z m -888,13 c -77,72 -206,97 -254,50 -92,-92 57,-270 211,-252 128,14 147,105 43,202 z M 6992,10726 c 176,0 305,203 198,310 -69,69 -202,49 -295,-44 -139,-139 -93,-266 97,-266 z m 29715,196 c -137,136 -337,99 -337,-62 0,-155 272,-271 381,-162 64,64 51,128 -44,224 z"
     id="path1187"
     style="display:inline" /></g></svg>
